<?xml version="1.0" encoding="utf-8"?><!-- Uploaded to: SVG Repo, www.svgrepo.com, Generator: SVG Repo Mixer Tools -->
<svg width="800px" height="800px" viewBox="0 0 24 24" fill="none" xmlns="http://www.w3.org/2000/svg">
<path d="M15.154 8.84604L18.3079 12L15.9425 14.3655L12.7885 11.2115L15.154 8.84604ZM18.3079 5.69207L20.6672 8.05132C21.1061 8.49023 21.1061 9.20184 20.6672 9.64075L18.3079 12L15.154 8.84604L18.3079 5.69207ZM12 5.69207L15.154 8.84604L12.7885 11.2115L9.63453 8.05755L12 5.69207ZM15.9487 3.33283L18.3079 5.69207L15.154 8.84604L12 5.69207L14.3592 3.33283C14.7982 2.89392 15.5098 2.89392 15.9487 3.33283ZM15.9362 14.3592C16.3751 14.7982 16.3751 15.5098 15.9362 15.9487L14.3655 17.5194L13.9704 16.3363L9.64075 20.6672C9.20184 21.1061 8.49023 21.1061 8.05132 20.6672L3.33283 15.9487C2.89392 15.5098 2.89392 14.7982 3.33283 14.3592L7.66305 10.0289L6.48057 9.63453L8.05132 8.06377C8.49023 7.62486 9.20184 7.62486 9.64075 8.06377L15.9362 14.3592ZM9.64075 8.06377L15.9362 14.3592C16.3751 14.7982 16.3751 15.5098 15.9362 15.9487L14.3655 17.5194L13.577 15.154L10.423 13.577L8.84604 10.423L6.48057 9.63453L8.05132 8.06377C8.49023 7.62486 9.20184 7.62486 9.64075 8.06377Z" stroke="#000000" stroke-linejoin="round"/>
</svg>