<?xml version="1.0" encoding="utf-8"?>
<!-- Uploaded to: SVG Repo, www.svgrepo.com, Generator: SVG Repo Mixer Tools -->
<svg width="800px" height="800px" viewBox="0 -48.03 244.829 244.829" xmlns="http://www.w3.org/2000/svg"><defs><style>.a{fill:#ad7b59;}.b{fill:#211715;}.c{fill:#ffffff;}</style></defs><path class="a" d="M6.71,10.783C6.7,59.746,6.673,88.441,6.659,137.889a4.588,4.588,0,0,0,4.581,4.59c48.646.01,174.167.074,226.513.078a4.621,4.621,0,0,0,4.6-4.614c-.011-49.4.017-78.092.05-127.044a4.621,4.621,0,0,0-4.6-4.617C201.847,6.273,56.821,6.215,11.279,6.2A4.574,4.574,0,0,0,6.71,10.783Z"/><path class="b" d="M4.31,10.783Q4.3,35.655,4.29,60.526q-.01,22.767-.02,45.533l-.009,25.694c0,3.885-.867,8.716,2.525,11.5,2.268,1.86,5.014,1.628,7.757,1.629q13.973,0,27.945.009l35.045.013,38.929.016,39.529.015,37.379.014,31.818.008h6.781a61.072,61.072,0,0,0,6.462-.049,7.008,7.008,0,0,0,4.879-2.739,8.407,8.407,0,0,0,1.443-5.468q0-6.8,0-13.6,0-23.737.01-47.475.011-23.313.029-46.625l.009-13.228c0-3.976.569-8.554-3.419-10.9-1.894-1.114-3.98-.992-6.082-.992h-4.316L208,3.873l-30.31-.011-34.752-.013L106.71,3.836,71.478,3.823,40.333,3.812,15.8,3.805c-1.5,0-3.014-.05-4.516,0A7.107,7.107,0,0,0,4.31,10.783c-.115,3.089,4.686,3.085,4.8,0C9.2,8.438,11.486,8.6,13.217,8.6l4.946,0,11.409,0,28.235.009L90.95,8.63l35.426.013,35.085.013,32.118.012L220,8.677l10.407,0,4.324,0c1.17,0,2.871-.289,3.942.179,1.4.611,1.329,1.97,1.328,3.27q0,3.374,0,6.746l-.009,12.8q-.007,11.672-.016,23.343-.014,22.215-.02,44.431,0,12.057,0,24.115,0,6.692,0,13.383c0,1.261-.055,2.613-1.475,3.106a9.424,9.424,0,0,1-2.846.1q-14.129,0-28.257-.006-17.343,0-34.685-.012l-38.2-.014-38.809-.016L59.331,140.1l-31.316-.011-12.849,0H12.317c-.964,0-1.886.094-2.62-.643-1.091-1.1-.637-3.115-.637-4.519q0-3.374,0-6.748.008-23.658.019-47.316.011-22.563.02-45.126L9.11,10.783C9.111,7.694,4.311,7.689,4.31,10.783Z"/><path class="b" d="M161.95,18.237V130.524c0,3.089,4.8,3.094,4.8,0V18.237c0-3.089-4.8-3.094-4.8,0Z"/><path class="b" d="M223.048,126.556q-11.886,0-23.77.017l-6.311.005-2.584,0a11.2,11.2,0,0,1-2.425-.041c-1.857-.439-1.222-3.719-1.222-5.081v-7.431c0-3.089-4.8-3.094-4.8,0v6.956c0,2.811-.4,5.848,1.551,8.163,1.655,1.965,3.92,2.236,6.326,2.235l6.13,0,13.762-.012q6.672-.006,13.343-.008c3.088,0,3.093-4.8,0-4.8Z"/><path class="b" d="M223.048,97.609q-11.886,0-23.77.017l-6.311,0-2.584,0a11.268,11.268,0,0,1-2.425-.04c-1.857-.44-1.222-3.72-1.222-5.081V85.08c0-3.089-4.8-3.094-4.8,0v6.956c0,2.811-.4,5.848,1.551,8.163,1.655,1.965,3.92,2.237,6.326,2.235l6.13,0,13.762-.012q6.672-.006,13.343-.008c3.088,0,3.093-4.8,0-4.8Z"/><path class="b" d="M223.048,35.58q-11.886,0-23.77.017l-6.311.006-2.584,0a11.332,11.332,0,0,1-2.425-.041c-1.857-.44-1.222-3.72-1.222-5.081V23.051c0-3.088-4.8-3.093-4.8,0v6.956c0,2.811-.4,5.849,1.551,8.163,1.655,1.965,3.92,2.237,6.326,2.235l6.13-.005,13.762-.012q6.672-.006,13.343-.008c3.088,0,3.093-4.8,0-4.8Z"/><path class="b" d="M223.048,66.6q-11.886,0-23.77.016l-6.311.006-2.584,0a11.2,11.2,0,0,1-2.425-.041c-1.857-.439-1.222-3.719-1.222-5.081V54.066c0-3.089-4.8-3.094-4.8,0v6.956c0,2.81-.4,5.848,1.551,8.163,1.655,1.965,3.92,2.236,6.326,2.234l6.13,0,13.762-.012q6.672,0,13.343-.007c3.088,0,3.093-4.8,0-4.8Z"/><path class="b" d="M146.545,97.609q-12.252,0-24.506.018l-6.342.005-2.7,0a8.885,8.885,0,0,1-2.47,0c-.449-.166-.288-.343-.288-.929V85.08c0-3.089-4.8-3.094-4.8,0V96.568a6.277,6.277,0,0,0,.84,3.718c1.5,2.228,3.935,2.15,6.321,2.148l6.084,0,14.328-.012q6.769-.006,13.538-.008c3.089,0,3.094-4.8,0-4.8Z"/><path class="b" d="M146.545,35.58q-12.252,0-24.506.018L115.7,35.6l-2.7,0a8.885,8.885,0,0,1-2.47,0c-.449-.165-.288-.342-.288-.929V23.051c0-3.088-4.8-3.093-4.8,0V34.54a6.276,6.276,0,0,0,.84,3.717c1.5,2.228,3.935,2.15,6.321,2.149l6.084,0,14.328-.013q6.769-.006,13.538-.008c3.089,0,3.094-4.8,0-4.8Z"/><path class="b" d="M146.545,66.6q-12.252,0-24.506.017l-6.342.006-2.7,0a8.923,8.923,0,0,1-2.47,0c-.449-.165-.288-.342-.288-.928V54.066c0-3.089-4.8-3.094-4.8,0V65.554a6.277,6.277,0,0,0,.84,3.718c1.5,2.227,3.935,2.15,6.321,2.148l6.084,0,14.328-.013q6.769,0,13.538-.007c3.089,0,3.094-4.8,0-4.8Z"/><path class="c" d="M8.607,146.344H141.153a6.2,6.2,0,0,0,6.108-7.279L124.07,7.542a6.2,6.2,0,0,0-6.109-5.125H8.607a6.2,6.2,0,0,0-6.2,6.2V140.142A6.2,6.2,0,0,0,8.607,146.344Z"/><path class="b" d="M8.607,148.744H125.091c5.29,0,10.582.046,15.872,0a8.778,8.778,0,0,0,7.114-3.528,8.912,8.912,0,0,0,1.456-7.031c-.291-1.725-.608-3.447-.912-5.17l-4.551-25.809L137.633,70.7l-6.37-36.126L127.054,10.7c-.223-1.262-.416-2.533-.668-3.789a8.719,8.719,0,0,0-8.437-6.9c-.443-.011-.888,0-1.331,0H11.972c-2.31,0-4.671-.2-6.842.754A8.71,8.71,0,0,0,0,8.7C0,9.189,0,9.676,0,10.163V139.212c0,.309-.007.619,0,.927a8.745,8.745,0,0,0,8.6,8.6c3.09.084,3.087-4.716,0-4.8a3.85,3.85,0,0,1-3.8-3.934c0-.521,0-1.043,0-1.565V9.96c0-.429-.009-.86,0-1.29A3.853,3.853,0,0,1,8.626,4.817c1.551-.052,3.114,0,4.666,0H116.879c.36,0,.723-.013,1.082,0a3.958,3.958,0,0,1,3.825,3.538c.93,5.007,1.769,10.033,2.654,15.048l5.612,31.83,6.556,37.18,5.6,31.736c.9,5.1,2.028,10.213,2.706,15.347a3.9,3.9,0,0,1-2.367,4.207,5.265,5.265,0,0,1-2.016.241H8.607C5.518,143.944,5.513,148.744,8.607,148.744Z"/></svg>